<svg width="24" height="24" viewBox="0 0 24 24" fill="none" xmlns="http://www.w3.org/2000/svg">
<path fill-rule="evenodd" clip-rule="evenodd" d="M11.0126 5.6479C11.4643 6.31301 11.6916 7.10516 11.6916 8.03033C11.6916 8.98241 11.4643 9.74916 11.0069 10.3276C10.7484 10.6519 10.372 10.9493 9.87342 11.2169C10.6305 11.5083 11.2001 11.9672 11.5879 12.5949C11.9728 13.2212 12.1646 13.9849 12.1646 14.8817C12.1646 15.8054 11.9458 16.6364 11.5041 17.3688C11.2242 17.8545 10.8734 18.2656 10.4544 18.5974C9.98137 18.9785 9.42456 19.2386 8.77968 19.3805C8.13481 19.5225 7.43738 19.5913 6.68313 19.5913H0V3.98438H7.16749C8.97712 4.01427 10.2569 4.56728 11.0126 5.6479ZM2.95734 6.69563V10.1393H6.56381C7.20585 10.1393 7.72999 10.0092 8.13339 9.75065C8.53253 9.49358 8.73565 9.03622 8.73565 8.38157C8.73565 7.65369 8.47003 7.17391 7.93879 6.93926C7.47999 6.77784 6.89619 6.69563 6.18598 6.69563H2.95734ZM2.95734 12.7205V16.8815H6.55813C7.20158 16.8815 7.703 16.7904 8.06095 16.608C8.7115 16.2672 9.03536 15.6186 9.03536 14.6605C9.03536 13.8459 8.72287 13.2899 8.0922 12.985C7.73851 12.8161 7.2442 12.7265 6.60927 12.7205H2.95734ZM21.1318 8.28592C21.8988 8.64612 22.5295 9.21558 23.0252 9.99278C23.4783 10.6788 23.7695 11.474 23.9016 12.3782C23.9783 12.9088 24.011 13.6726 23.9968 14.6695H16.0068C16.0537 15.8278 16.433 16.6394 17.1545 17.1042C17.5935 17.3942 18.1204 17.5377 18.7369 17.5377C19.3875 17.5377 19.9201 17.3628 20.3278 17.0101C20.5522 16.8188 20.7482 16.5542 20.9187 16.2149H23.8462C23.7695 16.8995 23.4144 17.5945 22.7837 18.3029C21.8022 19.4239 20.4258 19.9844 18.6588 19.9844C17.1986 19.9844 15.9088 19.5121 14.7966 18.5645C13.6773 17.6184 13.1219 16.0774 13.1219 13.9461C13.1219 11.9448 13.6248 10.4128 14.6304 9.34411C15.6389 8.27994 16.9457 7.74486 18.5522 7.74486C19.5068 7.74486 20.3676 7.92422 21.1318 8.28592ZM16.8421 10.8925C16.4372 11.332 16.1816 11.9283 16.0779 12.6786H21.0195C20.9684 11.8775 20.7113 11.2707 20.2568 10.8552C19.7965 10.4412 19.2298 10.2334 18.5537 10.2334C17.8193 10.2334 17.2469 10.4531 16.8421 10.8925ZM15.3364 6.65528H21.6914V4.71375H15.3364V6.65528Z" fill="#344054"/>
</svg>
