<svg width="24" height="24" viewBox="0 0 24 24" fill="none" xmlns="http://www.w3.org/2000/svg">
<path d="M17.8241 8.55803C18.9529 7.82225 19.7 6.55453 19.7 5.11606C19.7 2.84615 17.8412 1 15.5557 1H8.4444C6.15889 1 4.30005 2.84615 4.30005 5.11606C4.30005 6.55453 5.04718 7.82225 6.17599 8.55803C5.04718 9.2947 4.30005 10.5615 4.30005 12C4.30005 13.4385 5.04718 14.7053 6.17599 15.442C5.04718 16.1786 4.30005 17.4455 4.30005 18.8839C4.30005 21.1539 6.16969 23 8.46691 23C10.7641 23 12.6788 21.1333 12.6788 18.8392V15.0441C13.4151 15.7102 14.3936 16.1161 15.4657 16.1161H15.5557C17.8412 16.1161 19.7 14.2699 19.7 12C19.7 10.5615 18.9529 9.29381 17.8241 8.55803ZM12.6788 2.34818H15.5557C17.0923 2.34818 18.3426 3.58997 18.3426 5.11606C18.3426 6.64215 17.0923 7.88394 15.5557 7.88394H12.6788V2.34818ZM8.4444 2.34818H11.3213V7.88394H8.4444C6.90782 7.88394 5.6575 6.64215 5.6575 5.11606C5.6575 3.58997 6.90782 2.34818 8.4444 2.34818ZM5.6575 12C5.6575 10.4739 6.90782 9.23212 8.4444 9.23212H11.3213V14.7679H8.4426C6.90692 14.767 5.6575 13.5261 5.6575 12ZM11.3213 18.8392C11.3213 20.3904 10.0404 21.6518 8.46691 21.6518C6.89342 21.6518 5.6575 20.41 5.6575 18.8839C5.6575 17.3579 6.90692 16.117 8.4426 16.1161H11.3213V18.8392ZM15.5557 14.7679H15.4657C13.9291 14.7679 12.6788 13.5261 12.6788 12C12.6788 10.4739 13.9291 9.23212 15.4657 9.23212H15.5557C17.0923 9.23212 18.3426 10.4739 18.3426 12C18.3426 13.5261 17.0923 14.7679 15.5557 14.7679Z" fill="#344054"/>
</svg>
