<svg width="24" height="24" viewBox="0 0 24 24" fill="none" xmlns="http://www.w3.org/2000/svg">
<defs>
<clipPath id="clip0_18885_2135">
<rect width="24" height="24" fill="white"/>
</clipPath>
</defs>
<g clip-path="url(#clip0_18885_2135)">
<path d="M17.1687 24H6.82977C5.01913 23.9968 3.28359 23.276 2.00341 21.9955C0.723232 20.7151 0.0028137 18.9793 0 17.1687V6.82977C0.00321674 5.01913 0.724022 3.28359 2.00448 2.00341C3.28495 0.723232 5.02065 0.0028137 6.83129 0L17.1702 0C18.9811 0.00281478 20.7171 0.723442 21.9976 2.00395C23.2781 3.28446 23.9987 5.02039 24.0015 6.8313V17.1702C23.9983 18.9811 23.2773 20.7169 21.9965 21.9971C20.7157 23.2773 18.9796 23.9976 17.1687 24ZM6.82977 2.05714C5.56396 2.05835 4.35034 2.56173 3.45527 3.45679C2.56021 4.35186 2.05683 5.56548 2.05562 6.8313V17.1702C2.05683 18.436 2.56021 19.6497 3.45527 20.5447C4.35034 21.4398 5.56396 21.9432 6.82977 21.9444H17.1687C18.4344 21.9428 19.6478 21.4393 20.5428 20.5443C21.4377 19.6493 21.9412 18.4359 21.9429 17.1702V6.8313C21.9416 5.56548 21.4383 4.35186 20.5432 3.45679C19.6481 2.56173 18.4345 2.05835 17.1687 2.05714H6.82977Z" fill="#344054"/>
<path d="M11.9992 18.1448C10.7837 18.1448 9.59556 17.7844 8.58492 17.1091C7.57428 16.4338 6.78659 15.474 6.32145 14.351C5.8563 13.2281 5.7346 11.9924 5.97173 10.8003C6.20885 9.60815 6.79416 8.51311 7.65364 7.65364C8.51311 6.79416 9.60815 6.20885 10.8003 5.97173C11.9924 5.7346 13.2281 5.8563 14.351 6.32145C15.474 6.78659 16.4338 7.57428 17.1091 8.58492C17.7844 9.59556 18.1448 10.7837 18.1448 11.9992C18.1432 13.6286 17.4952 15.1909 16.343 16.343C15.1909 17.4952 13.6286 18.1432 11.9992 18.1448ZM11.9992 7.9123C11.1905 7.9123 10.4 8.15213 9.72765 8.60144C9.05528 9.05075 8.53125 9.68936 8.22185 10.4365C7.91245 11.1837 7.83158 12.0058 7.98945 12.7989C8.14733 13.592 8.53687 14.3205 9.1088 14.8922C9.68073 15.464 10.4094 15.8532 11.2025 16.0108C11.9957 16.1684 12.8178 16.0872 13.5649 15.7775C14.3119 15.4679 14.9503 14.9436 15.3994 14.271C15.8484 13.5985 16.088 12.8079 16.0877 11.9992C16.0881 10.9144 15.6576 9.87374 14.8909 9.1062C14.1242 8.33866 13.0841 7.90703 11.9992 7.90622V7.9123Z" fill="#344054"/>
<path d="M19.8857 5.50398C19.8857 5.79627 19.799 6.082 19.6366 6.32504C19.4743 6.56807 19.2434 6.75749 18.9734 6.86935C18.7034 6.9812 18.4062 7.01047 18.1195 6.95344C17.8329 6.89642 17.5695 6.75567 17.3628 6.54899C17.1562 6.3423 17.0154 6.07897 16.9584 5.7923C16.9014 5.50562 16.9306 5.20847 17.0425 4.93843C17.1543 4.66839 17.3438 4.43758 17.5868 4.27519C17.8298 4.1128 18.1156 4.02612 18.4079 4.02612C18.7998 4.02612 19.1757 4.18183 19.4529 4.45898C19.73 4.73613 19.8857 5.11203 19.8857 5.50398Z" fill="#344054"/>
</g>
</svg>
