<svg width="24" height="24" viewBox="0 0 24 24" fill="none" xmlns="http://www.w3.org/2000/svg">
<defs>
<clipPath id="clip0_18885_2250">
<rect width="24" height="24" fill="white"/>
</clipPath>
</defs>
<g clip-path="url(#clip0_18885_2250)">
<path fill-rule="evenodd" clip-rule="evenodd" d="M18.8 24H5.2C2.3282 24 0 21.6718 0 18.8V5.2C0 2.3282 2.3282 0 5.2 0H18.8C21.6718 0 24 2.3282 24 5.2V18.8C24 21.6718 21.6718 24 18.8 24Z" fill="#344054"/>
<path fill-rule="evenodd" clip-rule="evenodd" d="M20.6992 10.9446C20.6992 7.03461 16.7794 3.85339 11.961 3.85339C7.14322 3.85339 3.22302 7.03461 3.22302 10.9446C3.22302 14.45 6.33162 17.3858 10.5308 17.9408C10.8154 18.0022 11.2028 18.1282 11.3006 18.3716C11.3888 18.5926 11.3582 18.9386 11.3288 19.1616C11.3288 19.1616 11.2264 19.7782 11.2042 19.9098C11.166 20.1306 11.0286 20.7738 11.961 20.3808C12.8938 19.9878 16.9934 17.4178 18.8268 15.3076H18.8264C20.0926 13.9188 20.6992 12.5096 20.6992 10.9446Z" fill="white"/>
<path fill-rule="evenodd" clip-rule="evenodd" d="M10.1856 9.05518H9.5726C9.4788 9.05518 9.4024 9.13138 9.4024 9.22518V13.0326C9.4024 13.1264 9.4788 13.2024 9.5726 13.2024H10.1856C10.2796 13.2024 10.3558 13.1264 10.3558 13.0326V9.22518C10.3558 9.13138 10.2796 9.05518 10.1856 9.05518ZM13.7916 9.05518H14.4044C14.4984 9.05518 14.5746 9.13138 14.5746 9.22518V13.0326C14.5746 13.1264 14.4984 13.2024 14.4044 13.2024H13.7916C13.7762 13.2024 13.7616 13.2004 13.748 13.1966L13.7467 13.1964L13.7454 13.1962L13.7338 13.1924L13.7318 13.1916L13.7288 13.1904L13.7204 13.187C13.7176 13.1858 13.715 13.1844 13.7124 13.183C13.7106 13.182 13.709 13.1812 13.7076 13.1802C13.704 13.1784 13.7004 13.1762 13.697 13.174C13.6964 13.1734 13.6958 13.173 13.6952 13.1726C13.679 13.1616 13.6642 13.1476 13.652 13.1306L11.905 10.7714V13.0326C11.905 13.1264 11.8288 13.2024 11.7348 13.2024H11.1218C11.028 13.2024 10.9516 13.1264 10.9516 13.0326V9.22518C10.9516 9.13138 11.028 9.05518 11.1218 9.05518H11.7348L11.7408 9.05538L11.7496 9.05598L11.7526 9.05633C11.7546 9.05655 11.7566 9.05678 11.7586 9.05718C11.7608 9.05738 11.7632 9.05778 11.7656 9.05818C11.769 9.05878 11.7722 9.05938 11.7754 9.06018L11.7814 9.06178L11.7814 9.06178C11.7848 9.06278 11.7882 9.06378 11.7914 9.06518C11.7934 9.06578 11.795 9.06638 11.797 9.06718C11.7997 9.06795 11.8022 9.06909 11.8047 9.07021L11.8047 9.07021L11.8068 9.07118L11.8122 9.07378C11.8152 9.07538 11.8182 9.07718 11.8212 9.07898L11.8227 9.07979C11.824 9.08046 11.8253 9.08112 11.8264 9.08198L11.8352 9.08798L11.8358 9.08838C11.8371 9.08941 11.8384 9.09033 11.8396 9.09158C11.8417 9.09302 11.8437 9.09473 11.8457 9.09641L11.8488 9.09898L11.8518 9.10198C11.8552 9.10518 11.8588 9.10878 11.8622 9.11238C11.8624 9.11278 11.8628 9.11318 11.8632 9.11358C11.8678 9.11898 11.8724 9.12478 11.8764 9.13078L13.6214 11.4872V9.22518C13.6214 9.13138 13.6974 9.05518 13.7916 9.05518ZM17.9592 9.8384C17.9592 9.9324 17.8832 10.0086 17.7892 10.0086H16.124V10.652H17.7892C17.8832 10.652 17.9592 10.7284 17.9592 10.8224V11.4352C17.9592 11.5294 17.8832 11.6054 17.7892 11.6054H16.124V12.249H17.7892C17.8832 12.249 17.9592 12.3254 17.9592 12.4194V13.0322C17.9592 13.1262 17.8832 13.2026 17.7892 13.2026H15.3404C15.2946 13.2026 15.2534 13.1842 15.223 13.1548C15.2224 13.1546 15.2218 13.1541 15.2213 13.1537L15.2204 13.1528L15.2191 13.1515C15.2187 13.151 15.2184 13.1505 15.2182 13.15C15.1886 13.1196 15.1704 13.0782 15.1704 13.0326V13.0322V9.22539V9.22519C15.1704 9.17959 15.1886 9.13839 15.2178 9.10799C15.2184 9.10699 15.2194 9.10599 15.2204 9.10499L15.2211 9.10435C15.2216 9.10402 15.222 9.10368 15.2224 9.10319C15.253 9.07359 15.2944 9.05519 15.3404 9.05519H15.3408H17.7892C17.8832 9.05519 17.9592 9.13139 17.9592 9.22539V9.8384ZM7.04276 12.249H8.70816C8.80216 12.249 8.87816 12.3254 8.87816 12.4194V13.0322C8.87816 13.1262 8.80216 13.2026 8.70816 13.2026H6.25936C6.21376 13.2026 6.17256 13.1844 6.14176 13.155C6.14126 13.1542 6.14049 13.1536 6.13978 13.1531C6.13964 13.153 6.13949 13.1529 6.13936 13.1528C6.13862 13.1521 6.13809 13.1513 6.13763 13.1507C6.13747 13.1504 6.13731 13.1502 6.13716 13.15C6.10776 13.1196 6.08936 13.0782 6.08936 13.0326V13.0322V9.22521C6.08936 9.13121 6.16576 9.05521 6.25956 9.05521H6.87256C6.96656 9.05521 7.04276 9.13121 7.04276 9.22521V12.249Z" fill="#344054"/>
</g>
</svg>
