<svg width="24" height="24" viewBox="0 0 24 24" fill="none" xmlns="http://www.w3.org/2000/svg">
<path d="M3.04223 4.80139C3.48191 3.69763 4.18925 2.74324 5.08927 2.03938C5.20164 1.93965 5.32065 1.84903 5.44533 1.76825C5.74603 1.55112 6.06374 1.36297 6.39481 1.20595C7.85823 0.401982 9.48497 0 11.275 0C13.7431 0 15.8 0.50572 17.4456 1.51716C19.0912 2.5286 20.3125 4.00096 21.1096 5.93425C21.9135 7.88679 22.3219 10.0031 22.3073 12.1408C22.3073 14.647 21.8326 16.8581 20.8831 18.7741C19.9537 20.6696 18.4949 22.1986 16.715 23.1429C15.3256 23.8069 13.5914 24.0851 11.5124 23.9775C8.71333 23.9775 6.48083 23.2466 4.81488 21.7848C3.14894 20.3231 2.296 18.5324 2.25608 16.4129L6.76502 16.3858C6.97335 17.699 7.52649 18.6291 8.42443 19.1761C9.32237 19.7231 10.4998 20.0504 11.9567 20.158C13.8752 20.158 15.327 19.5396 16.3121 18.3026C17.2971 17.0656 17.8387 15.1838 17.9367 12.6571C17.9367 9.7242 17.3879 7.55632 16.2903 6.15351C15.1521 4.74913 13.5246 4.10037 11.4079 4.20726C10.2079 4.18652 9.02977 4.55611 8.02591 5.26821C7.12652 5.90949 6.58754 7.01759 6.40896 8.59252V9.02515H7.86258C8.81094 9.02515 9.72046 9.43301 10.3911 10.159C11.0616 10.885 11.4384 11.8697 11.4384 12.8964H2.12215C1.81509 9.51318 2.08694 6.89539 2.9377 5.04305C2.96659 4.95963 3.00154 4.87882 3.04223 4.80139Z" fill="#344054"/>
<rect width="24" height="24" fill="white"/>
</svg>
