<svg width="24" height="24" viewBox="0 0 24 24" fill="none" xmlns="http://www.w3.org/2000/svg">
<defs>
<clipPath id="clip0_18885_2402">
<rect width="24" height="24" fill="white"/>
</clipPath>
</defs>
<g clip-path="url(#clip0_18885_2402)">
<path fill-rule="evenodd" clip-rule="evenodd" d="M12 -0.0010376C5.241 -0.0010376 0 4.95196 0 11.639C0 15.137 1.434 18.161 3.768 20.249C3.963 20.423 4.083 20.669 4.089 20.933L4.155 23.069C4.176 23.75 4.878 24.194 5.502 23.918L7.884 22.868C8.085 22.778 8.313 22.763 8.526 22.82C9.621 23.12 10.785 23.282 12 23.282C18.759 23.282 24 18.329 24 11.642C24 4.95496 18.759 -0.0010376 12 -0.0010376Z" fill="#344054"/>
<path fill-rule="evenodd" clip-rule="evenodd" d="M4.79401 15.0439L8.319 9.45193C8.88 8.56093 10.08 8.34193 10.923 8.97193L13.728 11.0749C13.986 11.2669 14.34 11.2669 14.595 11.0719L18.381 8.19793C18.885 7.81393 19.545 8.41993 19.209 8.95693L15.681 14.5459C15.12 15.4369 13.92 15.6559 13.077 15.0259L10.272 12.9229C10.014 12.7309 9.66 12.7309 9.405 12.9259L5.61901 15.7999C5.11501 16.1839 4.45501 15.5809 4.79401 15.0439Z" fill="white"/>
</g>
</svg>
