<svg width="24" height="24" viewBox="0 0 24 24" fill="none" xmlns="http://www.w3.org/2000/svg">
<rect width="24" height="24" fill="white"/>
<path d="M3.82063 6.60106C4.16698 5.77324 4.72418 5.05744 5.43315 4.52954C5.52167 4.45475 5.61542 4.38678 5.71363 4.32619C5.9505 4.16335 6.20077 4.02223 6.46157 3.90446C7.61435 3.30149 8.89579 3 10.3059 3C12.2501 3 13.8703 3.37929 15.1666 4.13788C16.4629 4.89646 17.425 6.00074 18.0529 7.45071C18.6862 8.91513 19.0079 10.5024 18.9964 12.1057C18.9964 13.9853 18.6224 15.6436 17.8745 17.0807C17.1424 18.5023 15.9932 19.649 14.5911 20.3572C13.4966 20.8553 12.1306 21.064 10.4929 20.9832C8.28795 20.9832 6.52933 20.435 5.21701 19.3387C3.90469 18.2424 3.2328 16.8994 3.20135 15.3097L6.75319 15.2894C6.9173 16.2743 7.35303 16.9719 8.06037 17.3821C8.7677 17.7924 9.69519 18.0379 10.8428 18.1186C12.3541 18.1186 13.4978 17.6547 14.2737 16.727C15.0497 15.7993 15.4763 14.3879 15.5535 12.4929C15.5535 10.2932 15.1212 8.66727 14.2566 7.61516C13.36 6.56186 12.0779 6.0753 10.4105 6.15546C9.46526 6.13991 8.53721 6.4171 7.74644 6.95118C7.03796 7.43214 6.61338 8.26322 6.47272 9.44442V9.7689H7.61778C8.36483 9.7689 9.08129 10.0748 9.60954 10.6193C10.1378 11.1638 10.4345 11.9023 10.4345 12.6724H3.09585C2.85398 10.1349 3.06812 8.17157 3.73829 6.78231C3.76104 6.71974 3.78858 6.65914 3.82063 6.60106Z" fill="#344054"/>
<path d="M20 21C20.5523 21 21 20.5523 21 20C21 19.4477 20.5523 19 20 19C19.4477 19 19 19.4477 19 20C19 20.5523 19.4477 21 20 21Z" fill="#344054"/>
</svg>
