<svg width="24" height="24" viewBox="0 0 24 24" fill="none" xmlns="http://www.w3.org/2000/svg">
<path d="M22.7999 12.1807C22.7999 10.7953 21.737 9.67085 20.4274 9.67085C19.782 9.67085 19.2126 9.93188 18.795 10.3736C17.1817 9.14881 14.942 8.34566 12.4745 8.24527L13.5564 2.88424L17.0678 3.66731C17.1058 4.61101 17.846 5.374 18.7571 5.374C19.6871 5.374 20.4463 4.57086 20.4463 3.587C20.4463 2.60314 19.6871 1.79999 18.7571 1.79999C18.0927 1.79999 17.5233 2.20156 17.2576 2.80392L13.3286 1.92046C13.2147 1.90038 13.1008 1.92046 13.0059 1.9807C12.911 2.04093 12.8541 2.14133 12.8161 2.2618L11.6203 8.24527C9.09591 8.32558 6.83721 9.10865 5.20487 10.3736C4.7873 9.95196 4.1989 9.67085 3.57253 9.67085C2.26287 9.67085 1.19995 10.7953 1.19995 12.1807C1.19995 13.2047 1.76937 14.0681 2.60452 14.4697C2.56656 14.7106 2.54758 14.9716 2.54758 15.2327C2.54758 19.0878 6.78027 22.2 12.0189 22.2C17.2576 22.2 21.4903 19.0878 21.4903 15.2327C21.4903 14.9716 21.4713 14.7307 21.4333 14.4898C22.2115 14.0882 22.7999 13.2047 22.7999 12.1807ZM6.57148 13.9677C6.57148 12.9838 7.33071 12.1807 8.26076 12.1807C9.19081 12.1807 9.95004 12.9838 9.95004 13.9677C9.95004 14.9516 9.19081 15.7547 8.26076 15.7547C7.33071 15.7547 6.57148 14.9516 6.57148 13.9677ZM16.0049 18.6862C14.8471 19.911 12.6453 19.9913 12 19.9913C11.3546 19.9913 9.13387 19.8909 7.99503 18.6862C7.8242 18.5055 7.8242 18.2043 7.99503 18.0236C8.16585 17.8429 8.45057 17.8429 8.62139 18.0236C9.34266 18.7866 10.8991 19.0677 12.0189 19.0677C13.1388 19.0677 14.6762 18.7866 15.4165 18.0236C15.5873 17.8429 15.872 17.8429 16.0428 18.0236C16.1757 18.2244 16.1757 18.5055 16.0049 18.6862ZM15.7012 15.7547C14.7711 15.7547 14.0119 14.9516 14.0119 13.9677C14.0119 12.9838 14.7711 12.1807 15.7012 12.1807C16.6312 12.1807 17.3905 12.9838 17.3905 13.9677C17.3905 14.9516 16.6312 15.7547 15.7012 15.7547Z" fill="#344054"/>
</svg>
