<svg width="24" height="24" viewBox="0 0 24 24" fill="none" xmlns="http://www.w3.org/2000/svg">
<path d="M17.1765 8.66347C18.7198 9.77064 20.6105 10.4221 22.6525 10.4221V6.47861C22.2661 6.47869 21.8806 6.43825 21.5025 6.35786V9.46193C19.4606 9.46193 17.5702 8.81049 16.0265 7.7034V15.7509C16.0265 19.7766 12.7745 23.0399 8.76333 23.0399C7.26666 23.0399 5.87556 22.5858 4.71997 21.807C6.03888 23.1604 7.87821 24 9.91309 24C13.9245 24 17.1766 20.7367 17.1766 16.7108V8.66347H17.1765ZM18.5951 4.68499C17.8064 3.82023 17.2885 2.70267 17.1765 1.46717V0.959961H16.0867C16.361 2.53028 17.2966 3.87187 18.5951 4.68499ZM7.25706 18.7178C6.81638 18.1379 6.57824 17.4286 6.57931 16.6992C6.57931 14.858 8.06672 13.3651 9.90177 13.3651C10.2438 13.365 10.5837 13.4176 10.9096 13.5214V9.48977C10.5287 9.43739 10.1443 9.41515 9.7601 9.4233V12.5613C9.43394 12.4575 9.09384 12.4048 8.75177 12.4051C6.91671 12.4051 5.42938 13.8979 5.42938 15.7393C5.42938 17.0414 6.17284 18.1687 7.25706 18.7178Z" fill="#344054"/>
<path d="M16.0265 7.70332C17.5702 8.81041 19.4607 9.46185 21.5025 9.46185V6.35778C20.3628 6.11414 19.3538 5.5164 18.5951 4.68499C17.2966 3.87179 16.361 2.5302 16.0867 0.959961H13.2241V16.7106C13.2176 18.5468 11.7327 20.0336 9.90162 20.0336C8.82257 20.0336 7.86394 19.5174 7.25682 18.7178C6.17269 18.1687 5.42923 17.0413 5.42923 15.7394C5.42923 13.8981 6.91655 12.4052 8.75161 12.4052C9.1032 12.4052 9.44208 12.4602 9.75995 12.5614V9.42338C5.81921 9.50509 2.6499 12.7365 2.6499 16.7107C2.6499 18.6946 3.43913 20.4931 4.72006 21.8071C5.87565 22.5858 7.26675 23.04 8.76342 23.04C12.7747 23.04 16.0265 19.7765 16.0265 15.7509V7.70332H16.0265Z" fill="#344054"/>
</svg>
