<svg width="24" height="24" viewBox="0 0 24 24" fill="none" xmlns="http://www.w3.org/2000/svg">
<path d="M16.9987 11.1983C16.9094 11.1526 16.8178 11.1093 16.725 11.0673C16.564 7.93735 14.9381 6.14615 12.2103 6.12266H12.1727C10.5409 6.12266 9.18287 6.85571 8.3476 8.18953L9.84898 9.28229C10.4728 8.28595 11.4526 8.07333 12.1739 8.07333H12.1985C13.0972 8.07951 13.7751 8.35394 14.2133 8.89043C14.5328 9.27982 14.7466 9.82003 14.8524 10.4974C13.9983 10.3515 13.1313 10.3075 12.2678 10.3664C9.67863 10.5185 8.01162 12.1156 8.12322 14.3271C8.14714 14.8733 8.29548 15.4055 8.55575 15.8788C8.81601 16.3521 9.18057 16.7526 9.61872 17.0466C10.4481 17.5946 11.4212 17.8517 12.3983 17.7809C13.7551 17.7018 14.8195 17.1628 15.5619 16.1615C16.1258 15.405 16.4818 14.4247 16.6392 13.1948C17.2533 13.5614 17.7405 14.1242 18.0302 14.8018C18.4801 15.9057 18.5071 17.7203 17.0997 19.2C15.8674 20.4955 14.3848 21.0543 12.1457 21.0728C9.66101 21.0543 7.78253 20.2162 6.56076 18.582C5.42122 17.0405 4.83031 14.8302 4.80916 12.0019C4.83031 9.17351 5.42122 6.96325 6.57134 5.43288C7.79311 3.79867 9.67158 2.96056 12.1562 2.94201C14.6585 2.96056 16.5699 3.80733 17.8375 5.44524C18.4601 6.24999 18.9289 7.2624 19.2378 8.44294L21 7.94847C20.6691 6.58394 20.0687 5.30811 19.2378 4.20414C17.5978 2.10142 15.2177 1.02225 12.1562 1H12.1445C9.09007 1.02225 6.73463 2.10513 5.15572 4.21402C3.74951 6.09794 3.02467 8.7149 3 11.9944V12.0093C3.02467 15.2888 3.74951 17.9058 5.15572 19.786C6.73463 21.8986 9.08654 22.9815 12.1445 23H12.1562C14.8747 22.9802 16.7908 22.2311 18.3697 20.5722C20.4349 18.4002 20.3668 15.6794 19.6913 14.0081C19.2038 12.814 18.2722 11.8412 16.9987 11.1983ZM12.3054 15.8414C11.1683 15.9094 9.9876 15.3716 9.92886 14.222C9.88539 13.3691 10.5057 12.4172 12.3759 12.3035C12.5897 12.2911 12.8 12.2849 13.0056 12.2849C13.6415 12.281 14.2759 12.3485 14.8982 12.4864C14.682 15.3185 13.4191 15.7771 12.3054 15.8414Z" fill="#344054"/>
</svg>
