<svg width="24" height="24" viewBox="0 0 24 24" fill="none" xmlns="http://www.w3.org/2000/svg">
<path fill-rule="evenodd" clip-rule="evenodd" d="M12.4264 0.0172273C17.7928 0.0424387 20.2023 1.79283 20.8002 2.34028C22.7775 4.05827 23.876 7.8688 23.1376 13.8871C22.4881 19.2047 18.7791 20.148 17.5348 20.4645C17.413 20.4955 17.3147 20.5205 17.2453 20.543C16.9104 20.651 13.9462 21.393 10.0961 21.0688C9.67111 21.5622 9.10565 22.2105 8.69866 22.6499C8.57571 22.7824 8.46059 22.9132 8.35058 23.0382C7.79355 23.671 7.3674 24.1552 6.71776 23.9537C6.07307 23.7556 6.10909 22.776 6.10909 22.776L6.11269 20.3593H6.10909C0.476124 18.7746 0.558962 12.9363 0.623791 9.81729C0.685019 6.69827 1.29009 4.18432 3.00808 2.46634C6.09468 -0.364547 12.4264 0.0172273 12.4264 0.0172273Z" fill="#344054"/>
<path d="M16.8958 18.7811C17.9533 18.5357 20.9067 17.8503 21.4521 13.455C22.0751 8.42708 21.2215 4.99472 19.5504 3.55766C19.0462 3.10026 16.8708 1.73524 12.3291 1.71363C12.3291 1.71363 6.95186 1.36066 4.34067 3.72334C2.88921 5.15679 2.39939 7.28896 2.34536 9.89295L2.33948 10.1582C2.27852 12.8212 2.1711 17.5144 6.77538 18.7926C6.77538 18.7926 6.75737 22.4843 6.75377 22.8084C6.75377 23.0353 6.78979 23.1902 6.91944 23.2226C7.01309 23.2478 7.15355 23.1974 7.2724 23.0785C8.03235 22.3114 10.4707 19.3725 10.4707 19.3725C13.7409 19.5886 16.3413 18.9403 16.6223 18.8502C16.6869 18.8296 16.78 18.808 16.8958 18.7811L16.8958 18.7811Z" fill="white"/>
<path d="M14.9374 9.66939C14.9455 9.83684 14.8163 9.97915 14.6488 9.98724C14.4814 9.99533 14.3391 9.86615 14.331 9.6987C14.2808 8.66131 13.7989 8.16363 12.8028 8.11071C12.6354 8.10182 12.5069 7.9589 12.5158 7.79149C12.5247 7.62408 12.6676 7.49558 12.835 7.50447C14.1458 7.57411 14.8724 8.32439 14.9374 9.66939Z" fill="#344054"/>
<path d="M16.1832 10.5098C16.3508 10.5136 16.4897 10.3808 16.4936 10.2132C16.5205 9.0267 16.1652 8.02493 15.4269 7.22056C14.6872 6.41474 13.6671 5.96855 12.3758 5.87686C12.2086 5.86499 12.0634 5.99093 12.0516 6.15815C12.0397 6.32538 12.1656 6.47057 12.3328 6.48244C13.4766 6.56365 14.3508 6.94601 14.9796 7.63108C15.609 8.31675 15.9101 9.16572 15.8866 10.1994C15.8828 10.367 16.0156 10.5059 16.1832 10.5098Z" fill="#344054"/>
<path d="M18.0891 10.8271C18.0904 10.9947 17.9555 11.1317 17.7879 11.1329C17.6202 11.1342 17.4833 10.9993 17.4821 10.8316C17.4683 8.98441 16.9231 7.54852 15.8486 6.49788C14.7703 5.447 13.4299 4.91598 11.8194 4.90568C11.6517 4.9046 11.5167 4.76783 11.5177 4.60019C11.5188 4.43255 11.6556 4.29752 11.8232 4.29859C13.5882 4.30988 15.0796 4.90076 16.2726 6.06346C17.4699 7.23407 18.0742 8.82574 18.0891 10.8271Z" fill="#344054"/>
<path d="M13.5357 13.5018C13.3088 13.7863 12.8802 13.7503 12.8802 13.7503C9.76116 12.9543 8.92558 9.7957 8.92558 9.7957C8.92558 9.7957 8.88956 9.3707 9.17409 9.1402L9.73594 8.69359C10.0169 8.4775 10.1934 7.95526 9.90882 7.44383C9.75035 7.1593 9.43341 6.65147 9.1993 6.33092C8.95079 5.99237 8.37453 5.30085 8.37092 5.29725C8.0936 4.9659 7.68301 4.89026 7.25081 5.11357C7.25081 5.11357 7.24721 5.11717 7.24361 5.11717C6.83302 5.34767 6.45125 5.65741 6.09469 6.04999L6.08748 6.0572C5.82096 6.37774 5.66609 6.69468 5.63008 7.00443C5.62287 7.04044 5.61927 7.08726 5.62287 7.14129C5.61927 7.27815 5.64088 7.41141 5.6841 7.54467L5.69851 7.55548C5.83177 8.03449 6.17032 8.83046 6.90145 10.1595C7.37687 11.0203 7.86309 11.7406 8.34571 12.3457C8.59783 12.6662 8.88596 12.9939 9.21731 13.3289L9.34697 13.4586C9.68192 13.7899 10.0097 14.078 10.3302 14.3302C10.9353 14.8128 11.652 15.299 12.5164 15.7744C13.8454 16.5055 14.6414 16.8441 15.1204 16.9774L15.1312 16.9918C15.2645 17.035 15.3977 17.053 15.5346 17.053C15.5886 17.0566 15.6354 17.053 15.6714 17.0458C15.9812 17.0098 16.2981 16.8549 16.6187 16.5884L16.6259 16.5812C17.0185 16.2246 17.3282 15.8392 17.5587 15.4323C17.5587 15.4323 17.5623 15.4287 17.5623 15.4251C17.7856 14.9929 17.71 14.5823 17.3786 14.3049C17.3786 14.3049 16.6835 13.7251 16.345 13.4766C16.028 13.2425 15.5166 12.9291 15.232 12.767C14.7206 12.4825 14.1984 12.659 13.9823 12.9399L13.5357 13.5018Z" fill="#344054"/>
</svg>
