<svg width="24" height="24" viewBox="0 0 24 24" fill="none" xmlns="http://www.w3.org/2000/svg">
<g clip-path="url(#clip0_18885_2360)">
<path d="M6.10352e-05 24L1.69633 17.8403C0.647625 16.0323 0.0974822 13.9848 0.103213 11.8916C0.103213 5.3327 5.46711 0 12.0516 0C15.2493 0 18.2522 1.23764 20.5043 3.48479C22.7622 5.73194 24.0058 8.72053 24 11.8973C24 18.4563 18.6362 23.789 12.0459 23.789H12.0402C10.0402 23.789 8.07455 23.2871 6.3267 22.3403L6.10352e-05 24ZM6.63043 20.1901L6.99146 20.4068C8.51581 21.308 10.2637 21.7814 12.0459 21.7871H12.0516C17.5244 21.7871 21.9829 17.3555 21.9829 11.903C21.9829 9.26236 20.9513 6.78137 19.0774 4.91065C17.2035 3.03992 14.7049 2.01331 12.0516 2.01331C6.57885 2.0076 2.1204 6.43916 2.1204 11.8916C2.1204 13.7567 2.64189 15.576 3.63903 17.1502L3.87398 17.5266L2.87112 21.1711L6.63043 20.1901Z" fill="white"/>
<path d="M6.10352e-05 24L1.69633 17.8403C0.647625 16.0323 0.0974822 13.9848 0.103213 11.8916C0.103213 5.3327 5.46711 0 12.0516 0C15.2493 0 18.2522 1.23764 20.5043 3.48479C22.7622 5.73194 24.0058 8.72053 24 11.8973C24 18.4563 18.6362 23.789 12.0459 23.789H12.0402C10.0402 23.789 8.07455 23.2871 6.3267 22.3403L6.10352e-05 24ZM6.63043 20.1901L6.99146 20.4068C8.51581 21.308 10.2637 21.7814 12.0459 21.7871H12.0516C17.5244 21.7871 21.9829 17.3555 21.9829 11.903C21.9829 9.26236 20.9513 6.78137 19.0774 4.91065C17.2035 3.03992 14.7049 2.01331 12.0516 2.01331C6.57885 2.0076 2.1204 6.43916 2.1204 11.8916C2.1204 13.7567 2.64189 15.576 3.63903 17.1502L3.87398 17.5266L2.87112 21.1711L6.63043 20.1901Z" fill="#344054"/>
<path fill-rule="evenodd" clip-rule="evenodd" d="M9.06588 6.91824C8.84238 6.42205 8.60743 6.41064 8.39539 6.40493C8.22347 6.39923 8.0229 6.39923 7.82233 6.39923C7.62176 6.39923 7.30084 6.47338 7.02577 6.76995C6.7507 7.06653 5.98279 7.78516 5.98279 9.25094C5.98279 10.711 7.05442 12.1255 7.20342 12.3251C7.35241 12.5247 9.27218 15.6217 12.3037 16.8137C14.8252 17.8061 15.3409 17.6065 15.8854 17.5551C16.4298 17.5038 17.6504 16.8365 17.9025 16.1407C18.149 15.4449 18.149 14.8517 18.0745 14.7262C18 14.6008 17.7994 14.5266 17.5014 14.3783C17.2034 14.23 15.7364 13.5114 15.4613 13.4087C15.1862 13.3118 14.9856 13.2604 14.7908 13.557C14.5902 13.8536 14.0172 14.5209 13.8452 14.7205C13.6733 14.9201 13.4957 14.943 13.1977 14.7947C12.8997 14.6464 11.9369 14.3327 10.7965 13.3175C9.90829 12.5304 9.30657 11.5551 9.13465 11.2585C8.96273 10.962 9.11746 10.8023 9.26645 10.654C9.39826 10.5228 9.56445 10.3061 9.71344 10.135C9.86244 9.96387 9.91402 9.8384 10.0114 9.63878C10.1089 9.43916 10.063 9.26805 9.98852 9.11976C9.91402 8.97718 9.32949 7.5057 9.06588 6.91824Z" fill="#344054"/>
</g>
<defs>
<clipPath id="clip0_18885_2360">
<rect width="24" height="24" fill="white"/>
</clipPath>
</defs>
</svg>
