<svg width="24" height="24" viewBox="0 0 24 24" fill="none" xmlns="http://www.w3.org/2000/svg">
<rect width="24" height="24" rx="6" fill="white"/>
<path fill-rule="evenodd" clip-rule="evenodd" d="M12.5697 3.89399C12.4915 3.87424 12.4095 3.86956 12.3285 3.88105C12.2191 3.87681 12.1095 3.87478 11.9997 3.87497C11.9999 3.87497 12.0002 3.87497 12.0005 3.87497M11.4264 3.89495C10.2889 3.97489 9.17864 4.29382 8.16915 4.83337C6.99041 5.46337 5.98547 6.37467 5.24355 7.48636C5.05194 7.77347 5.12936 8.16156 5.41647 8.35317C5.70358 8.54478 6.09166 8.46736 6.28327 8.18025C6.91095 7.23975 7.76114 6.46877 8.75836 5.93578C9.28132 5.65628 9.83623 5.44675 10.4088 5.31078C10.0282 6.06131 9.71207 6.84368 9.46414 7.64951C9.36264 7.97942 9.5478 8.32916 9.87772 8.43066C10.2076 8.53217 10.5574 8.347 10.6589 8.01708C10.9699 7.00623 11.3982 6.0357 11.9348 5.12524C11.9564 5.12505 11.9781 5.12496 11.9997 5.12497L12.0012 5.12497C12.0225 5.12493 12.0439 5.12499 12.0652 5.12515C12.6023 6.03563 13.0312 7.00628 13.3427 8.01732C13.4443 8.34719 13.7941 8.53222 14.124 8.43059C14.4539 8.32896 14.6389 7.97915 14.5373 7.64927C14.2887 6.84254 13.9718 6.05934 13.5903 5.3081C14.1658 5.44367 14.7236 5.65343 15.2493 5.93379C16.2488 6.46686 17.1011 7.23865 17.7304 8.18053C17.9222 8.46754 18.3103 8.54475 18.5973 8.35298C18.8843 8.16122 18.9615 7.7731 18.7698 7.48609C18.026 6.37295 17.0187 5.46084 15.8375 4.83084C14.8246 4.29063 13.7107 3.97221 12.5697 3.89399M3.51507 9.72696C3.84994 9.64324 4.18927 9.84684 4.27299 10.1817L4.61953 11.5679L5.16478 10.1138C5.25626 9.8699 5.48946 9.70829 5.74998 9.70829C6.01051 9.70829 6.24371 9.8699 6.33519 10.1138L6.88044 11.5679L7.22698 10.1817C7.3107 9.84684 7.65003 9.64324 7.9849 9.72696C8.31977 9.81067 8.52338 10.15 8.43966 10.4849L7.60632 13.8182C7.53997 14.0836 7.30868 14.2751 7.03553 14.2906C6.76237 14.3062 6.51085 14.1423 6.41478 13.8861L5.74998 12.1133L5.08519 13.8861C4.98912 14.1423 4.7376 14.3062 4.46444 14.2906C4.19129 14.2751 3.96 14.0836 3.89365 13.8182L3.06031 10.4849C2.97659 10.15 3.1802 9.81067 3.51507 9.72696ZM9.76507 9.72696C10.0999 9.64324 10.4393 9.84684 10.523 10.1817L10.8695 11.5679L11.4148 10.1138C11.5063 9.8699 11.7395 9.70829 12 9.70829C12.2605 9.70829 12.4937 9.8699 12.5852 10.1138L13.1304 11.5679L13.477 10.1817C13.5607 9.84684 13.9 9.64324 14.2349 9.72696C14.5698 9.81067 14.7734 10.15 14.6897 10.4849L13.8563 13.8182C13.79 14.0836 13.5587 14.2751 13.2855 14.2906C13.0124 14.3062 12.7608 14.1423 12.6648 13.8861L12 12.1133L11.3352 13.8861C11.2391 14.1423 10.9876 14.3062 10.7144 14.2906C10.4413 14.2751 10.21 14.0836 10.1436 13.8182L9.31031 10.4849C9.22659 10.15 9.4302 9.81067 9.76507 9.72696ZM16.0151 9.72696C16.3499 9.64324 16.6893 9.84684 16.773 10.1817L17.1195 11.5678L17.6648 10.1138C17.7563 9.8699 17.9895 9.70829 18.25 9.70829C18.5105 9.70829 18.7437 9.8699 18.8352 10.1138L19.3804 11.5678L19.727 10.1817C19.8107 9.84684 20.15 9.64324 20.4849 9.72696C20.8198 9.81067 21.0234 10.15 20.9397 10.4849L20.1063 13.8182C20.04 14.0836 19.8087 14.2751 19.5355 14.2906C19.2624 14.3062 19.0108 14.1423 18.9148 13.8861L18.25 12.1133L17.5852 13.8861C17.4891 14.1423 17.2376 14.3062 16.9644 14.2906C16.6913 14.2751 16.46 14.0836 16.3936 13.8182L15.5603 10.4849C15.4766 10.15 15.6802 9.81067 16.0151 9.72696ZM9.87772 15.5693C10.2076 15.4678 10.5574 15.6529 10.6589 15.9828C10.9699 16.9937 11.3982 17.9642 11.9348 18.8747C11.9564 18.8749 11.9781 18.875 11.9997 18.875L12.0012 18.875C12.0225 18.875 12.0439 18.8749 12.0651 18.8748C12.6023 17.9643 13.0312 16.9936 13.3427 15.9826C13.4443 15.6527 13.7941 15.4677 14.124 15.5693C14.4539 15.671 14.6389 16.0208 14.5373 16.3506C14.2887 17.1574 13.9718 17.9406 13.5903 18.6918C14.1658 18.5563 14.7236 18.3465 15.2493 18.0662C16.2488 17.5331 17.1011 16.7613 17.7304 15.8194C17.9222 15.5324 18.3103 15.4552 18.5973 15.647C18.8843 15.8387 18.9615 16.2268 18.7698 16.5138C18.026 17.627 17.0187 18.5391 15.8375 19.1691C14.8246 19.7093 13.7106 20.0277 12.5696 20.106C12.4914 20.1257 12.4095 20.1304 12.3286 20.1189C12.2192 20.1231 12.1097 20.1252 12 20.125C11.891 20.125 11.7821 20.1229 11.6734 20.1186C11.5905 20.1306 11.5065 20.1257 11.4265 20.105C10.2889 20.0251 9.17866 19.7061 8.16915 19.1666C6.99041 18.5366 5.98547 17.6253 5.24355 16.5136C5.05194 16.2265 5.12936 15.8384 5.41647 15.6468C5.70358 15.4552 6.09166 15.5326 6.28327 15.8197C6.91095 16.7602 7.76114 17.5312 8.75836 18.0642C9.28132 18.3437 9.83623 18.5532 10.4088 18.6892C10.0282 17.9386 9.71207 17.1563 9.46414 16.3504C9.36264 16.0205 9.5478 15.6708 9.87772 15.5693ZM11.9992 19.9665L11.9989 20.125C11.9993 20.125 11.9996 20.125 12 20.125C12.0001 20.125 12.0003 20.125 12.0005 20.125L12.0004 19.9663C12.0002 19.9662 12.0001 19.966 11.9999 19.9659" fill="#344054"/>
</svg>
