<svg width="24" height="24" viewBox="0 0 24 24" fill="none" xmlns="http://www.w3.org/2000/svg">
<path fill-rule="evenodd" clip-rule="evenodd" d="M12.6837 2.27281C12.5898 2.24911 12.4915 2.2435 12.3943 2.25729C12.263 2.2522 12.1314 2.24976 11.9997 2.24999C12 2.24999 12.0003 2.24999 12.0006 2.24999M11.3117 2.27396C9.94669 2.36989 8.61444 2.75261 7.40305 3.40006C5.98857 4.15606 4.78264 5.24963 3.89234 6.58366C3.6624 6.92819 3.7553 7.39389 4.09984 7.62383C4.44437 7.85376 4.91007 7.76086 5.14 7.41633C5.89321 6.28772 6.91344 5.36255 8.1101 4.72297C8.73766 4.38756 9.40355 4.13613 10.0907 3.97296C9.63396 4.87359 9.25455 5.81244 8.95704 6.77943C8.83524 7.17533 9.05744 7.59501 9.45334 7.71682C9.84924 7.83862 10.2689 7.61642 10.3907 7.22052C10.7639 6.0075 11.2779 4.84286 11.9218 3.75031C11.9478 3.75008 11.9737 3.74998 11.9997 3.74999L12.0016 3.74999C12.0271 3.74995 12.0527 3.75002 12.0783 3.75021C12.7229 4.84279 13.2375 6.00756 13.6113 7.2208C13.7333 7.61666 14.153 7.83869 14.5489 7.71673C14.9447 7.59477 15.1668 7.17501 15.0448 6.77915C14.7466 5.81107 14.3662 4.87123 13.9084 3.96975C14.599 4.13243 15.2684 4.38414 15.8992 4.72057C17.0986 5.36025 18.1214 6.2864 18.8766 7.41666C19.1067 7.76107 19.5724 7.85372 19.9168 7.6236C20.2612 7.39349 20.3539 6.92774 20.1238 6.58333C19.2313 5.24757 18.0226 4.15303 16.6051 3.39704C15.3896 2.74878 14.0529 2.36667 12.6837 2.27281M1.81815 9.27237C2.22 9.17191 2.6272 9.41623 2.72766 9.81808L3.1435 11.4814L3.79781 9.73664C3.90758 9.44391 4.18742 9.24998 4.50006 9.24998C4.81269 9.24998 5.09253 9.44391 5.2023 9.73664L5.85661 11.4814L6.27245 9.81808C6.37291 9.41623 6.78011 9.17191 7.18196 9.27237C7.5838 9.37283 7.82812 9.78003 7.72766 10.1819L6.72766 14.1819C6.64803 14.5004 6.37049 14.7301 6.0427 14.7488C5.71492 14.7674 5.41309 14.5707 5.29781 14.2633L4.50006 12.136L3.7023 14.2633C3.58702 14.5707 3.28519 14.7674 2.95741 14.7488C2.62962 14.7301 2.35208 14.5004 2.27245 14.1819L1.27245 10.1819C1.17199 9.78003 1.41631 9.37283 1.81815 9.27237ZM9.31815 9.27237C9.72 9.17191 10.1272 9.41623 10.2277 9.81808L10.6435 11.4814L11.2978 9.73664C11.4076 9.44391 11.6874 9.24998 12.0001 9.24998C12.3127 9.24998 12.5925 9.44391 12.7023 9.73664L13.3566 11.4814L13.7724 9.81808C13.8729 9.41623 14.2801 9.17191 14.682 9.27237C15.0838 9.37283 15.3281 9.78003 15.2277 10.1819L14.2277 14.1819C14.148 14.5004 13.8705 14.7301 13.5427 14.7488C13.2149 14.7674 12.9131 14.5707 12.7978 14.2633L12.0001 12.136L11.2023 14.2633C11.087 14.5707 10.7852 14.7674 10.4574 14.7488C10.1296 14.7301 9.85208 14.5004 9.77245 14.1819L8.77245 10.1819C8.67199 9.78003 8.91631 9.37283 9.31815 9.27237ZM16.8182 9.27237C17.22 9.17191 17.6272 9.41623 17.7277 9.81808L18.1435 11.4814L18.7978 9.73664C18.9076 9.44391 19.1874 9.24998 19.5001 9.24998C19.8127 9.24998 20.0925 9.44391 20.2023 9.73664L20.8566 11.4814L21.2724 9.81808C21.3729 9.41623 21.7801 9.17191 22.182 9.27237C22.5838 9.37283 22.8281 9.78003 22.7277 10.1819L21.7277 14.1819C21.648 14.5004 21.3705 14.7301 21.0427 14.7488C20.7149 14.7674 20.4131 14.5707 20.2978 14.2633L19.5001 12.136L18.7023 14.2633C18.587 14.5707 18.2852 14.7674 17.9574 14.7488C17.6296 14.7301 17.3521 14.5004 17.2724 14.1819L16.2724 10.1819C16.172 9.78003 16.4163 9.37283 16.8182 9.27237ZM9.45334 16.2831C9.84924 16.1613 10.2689 16.3835 10.3907 16.7794C10.7639 17.9925 11.2779 19.1571 11.9218 20.2497C11.9478 20.2499 11.9737 20.25 11.9997 20.25L12.0016 20.25C12.0271 20.25 12.0527 20.25 12.0782 20.2498C12.7229 19.1572 13.2375 17.9924 13.6113 16.7792C13.7333 16.3833 14.153 16.1613 14.5489 16.2832C14.9447 16.4052 15.1668 16.825 15.0448 17.2208C14.7466 18.1889 14.3662 19.1287 13.9084 20.0302C14.599 19.8675 15.2684 19.6158 15.8992 19.2794C17.0986 18.6397 18.1214 17.7136 18.8766 16.5833C19.1067 16.2389 19.5724 16.1462 19.9168 16.3764C20.2612 16.6065 20.3539 17.0722 20.1238 17.4166C19.2313 18.7524 18.0226 19.8469 16.6051 20.6029C15.3896 21.2512 14.0528 21.6333 12.6836 21.7272C12.5898 21.7508 12.4915 21.7564 12.3944 21.7427C12.2631 21.7478 12.1317 21.7502 12 21.75C11.8692 21.7501 11.7386 21.7475 11.6082 21.7423C11.5086 21.7568 11.4078 21.7509 11.3118 21.726C9.94675 21.6301 8.61446 21.2474 7.40305 20.5999C5.98857 19.8439 4.78264 18.7503 3.89234 17.4163C3.6624 17.0718 3.7553 16.6061 4.09984 16.3761C4.44437 16.1462 4.91007 16.2391 5.14 16.5836C5.89321 17.7123 6.91344 18.6374 8.1101 19.277C8.73766 19.6124 9.40355 19.8638 10.0907 20.027C9.63396 19.1264 9.25455 18.1875 8.95704 17.2205C8.83524 16.8246 9.05744 16.4049 9.45334 16.2831ZM11.9991 21.5598L11.9988 21.75C11.9992 21.75 11.9996 21.75 12 21.75C12.0002 21.75 12.0004 21.75 12.0006 21.75L12.0005 21.5596C12.0003 21.5594 12.0001 21.5592 12 21.5591" fill="#344054"/>
</svg>
