<svg width="200" height="54" viewBox="0 0 200 54" fill="none" xmlns="http://www.w3.org/2000/svg">
<path d="M61.2373 53.3389H48.9898L45.3158 22.8598L34.2936 53.3389H26.9436L15.9215 22.8598L12.2475 53.3389H0L6.1247 0H18.3722L30.6196 31.7493L42.8671 0H55.1145L61.2373 53.3389Z" fill="#242A2E"/>
<path d="M107.899 32.0654C107.899 43.8309 99.4781 53.3331 87.0784 53.3331C74.1422 53.3331 66.2576 43.8231 66.2576 32.0654C66.2576 20.3077 73.99 10.7977 87.0784 10.7977C99.3337 10.7919 107.899 20.2921 107.899 32.0654ZM95.6518 32.0654C95.6518 26.7465 91.8237 22.3954 87.0784 22.3954C82.3332 22.3954 78.505 26.7465 78.505 32.0654C78.505 37.3843 82.339 41.7354 87.0862 41.7354C91.8334 41.7354 95.6596 37.3843 95.6596 32.0654H95.6518Z" fill="#242A2E"/>
<path d="M112.805 36.1941L112.65 10.7919H125.138L125.06 34.9688C125.06 41.0935 128.504 42.3168 131.184 42.3168C133.709 42.3168 138.533 40.633 138.533 33.7434L138.595 10.7919H150.825V53.3643H138.591L138.533 48.4415C135.93 51.5029 131.949 53.3409 127.508 53.3409C119.77 53.3409 112.805 47.6767 112.805 36.1941Z" fill="#242A2E"/>
<path d="M186.053 52.7224V53.3409H172.2V53.0131C172.2 41.9909 169.043 31.1994 163.102 21.9155L155.982 10.7938H170.173L177.25 22.0794C183.005 31.2636 186.056 41.8837 186.053 52.7224Z" fill="#242A2E"/>
<path d="M193.027 24.7388C196.878 24.7388 200 21.6167 200 17.7654C200 13.914 196.878 10.7919 193.027 10.7919C189.175 10.7919 186.053 13.914 186.053 17.7654C186.053 21.6167 189.175 24.7388 193.027 24.7388Z" fill="#EFB435"/>
</svg>
