<svg width="512" height="512" viewBox="0 0 512 512" fill="none" xmlns="http://www.w3.org/2000/svg">
<rect width="512" height="512" rx="120" fill="#EFB435"/>
<path d="M142.997 172.516C148.525 159.639 157.418 148.505 168.734 140.293C170.147 139.129 171.643 138.072 173.211 137.13C176.991 134.597 180.986 132.401 185.148 130.569C203.548 121.19 224.001 116.5 246.507 116.5C277.538 116.5 303.399 122.4 324.089 134.2C344.779 146 360.135 163.178 370.156 185.733C380.264 208.513 385.399 233.203 385.215 258.143C385.215 287.383 379.246 313.179 367.309 335.532C355.624 357.646 337.282 375.485 314.903 386.501C297.434 394.249 275.631 397.495 249.492 396.239C214.299 396.239 186.23 387.712 165.284 370.658C144.338 353.604 133.614 332.713 133.112 307.985L189.803 307.669C192.422 322.99 199.377 333.841 210.667 340.222C221.956 346.604 236.76 350.422 255.077 351.679C279.199 351.679 297.453 344.463 309.838 330.031C322.223 315.599 329.031 293.645 330.263 264.167C330.263 229.95 323.363 204.658 309.564 188.291C295.253 171.907 274.791 164.338 248.178 165.585C233.09 165.343 218.278 169.655 205.656 177.963C194.348 185.444 187.572 198.372 185.326 216.747V221.794H203.603C215.526 221.794 226.962 226.552 235.393 235.023C243.824 243.493 248.561 254.981 248.561 266.959H131.429C127.568 227.488 130.986 196.947 141.682 175.336C142.046 174.363 142.485 173.42 142.997 172.516Z" fill="#242A2E"/>
<path d="M399.863 396.5C409.937 396.5 418.104 388.333 418.104 378.259C418.104 368.185 409.937 360.018 399.863 360.018C389.789 360.018 381.622 368.185 381.622 378.259C381.622 388.333 389.789 396.5 399.863 396.5Z" fill="white"/>
</svg>
